HIERARCHY
ROOT Hips
{
	OFFSET 0.000000 0.000000 0.000000 
	CHANNELS 6 Xposition Yposition Zposition Zrotation Yrotation Xrotation
	JOINT LeftUpLeg
	{
		OFFSET 1.363060 -1.794630 0.839290 
		CHANNELS 3 Zrotation Yrotation Xrotation
		JOINT LeftLeg
		{
			OFFSET 2.448110 -6.726130 0.000000 
			CHANNELS 3 Zrotation Yrotation Xrotation
			JOINT LeftFoot
			{
				OFFSET 2.562200 -7.039590 0.000000 
				CHANNELS 3 Zrotation Yrotation Xrotation
				JOINT LeftToeBase
				{
					OFFSET 0.157640 -0.433110 2.322550 
					CHANNELS 3 Zrotation Yrotation Xrotation
					End Site
					{
						OFFSET 0.000000 0.000000 0.000000 
					}
				}
			}
		}
	}
	JOINT RightUpLeg
	{
		OFFSET -1.305520 -1.794630 0.839290 
		CHANNELS 3 Zrotation Yrotation Xrotation
		JOINT RightLeg
		{
			OFFSET -2.542530 -6.985550 0.000000 
			CHANNELS 3 Zrotation Yrotation Xrotation
			JOINT RightFoot
			{
				OFFSET -2.568260 -7.056230 0.000000 
				CHANNELS 3 Zrotation Yrotation Xrotation
				JOINT RightToeBase
				{
					OFFSET -0.164730 -0.452590 2.363150 
					CHANNELS 3 Zrotation Yrotation Xrotation
					End Site
					{
						OFFSET 0.000000 0.000000 0.000000 
					}
				}
			}
		}
	}
	JOINT Spine
	{
		OFFSET 0.028270 2.035590 -0.193380 
		CHANNELS 3 Zrotation Yrotation Xrotation
		JOINT Spine1
		{
			OFFSET 0.056720 2.048850 -0.042750 
			CHANNELS 3 Zrotation Yrotation Xrotation
			JOINT Neck1
			{
				OFFSET -0.054170 1.746240 0.172020 
				CHANNELS 3 Zrotation Yrotation Xrotation
				JOINT Head
				{
					OFFSET 0.104070 1.761360 -0.123970 
					CHANNELS 3 Zrotation Yrotation Xrotation
					End Site
					{
						OFFSET 0.000000 0.000000 0.000000 
					}
				}
			}
			JOINT LeftArm
			{
				OFFSET 3.362410 1.200890 -0.311210 
				CHANNELS 3 Zrotation Yrotation Xrotation
				JOINT LeftForeArm
				{
					OFFSET 4.983000 -0.000000 -0.000000 
					CHANNELS 3 Zrotation Yrotation Xrotation
					JOINT LeftHand
					{
						OFFSET 3.483560 -0.000000 -0.000000 
						CHANNELS 3 Zrotation Yrotation Xrotation
						JOINT LeftHandIndex1
						{
							OFFSET 0.715260 -0.000000 -0.000000 
							CHANNELS 3 Zrotation Yrotation Xrotation
							End Site
							{
								OFFSET 0.000000 0.000000 0.000000 
							}
						}
					}
				}
			}
			JOINT RightArm
			{
				OFFSET -3.136600 1.374050 -0.404650 
				CHANNELS 3 Zrotation Yrotation Xrotation
				JOINT RightForeArm
				{
					OFFSET -5.241900 -0.000000 -0.000000 
					CHANNELS 3 Zrotation Yrotation Xrotation
					JOINT RightHand
					{
						OFFSET -3.444170 -0.000000 -0.000000 
						CHANNELS 3 Zrotation Yrotation Xrotation
						JOINT RightHandIndex1
						{
							OFFSET -0.622530 -0.000000 -0.000000 
							CHANNELS 3 Zrotation Yrotation Xrotation
							End Site
							{
								OFFSET 0.000000 0.000000 0.000000 
							}
						}
					}
				}
			}
		}
	}
}
MOTION
Frames: 7
Frame Time: 0.041667
17.030514 17.889535 1.426463 122.326995 -88.557407 -123.608061 -6.133699 3.562089 -7.254180 0.844965 10.390338 24.413852 -7.741508 21.560324 -0.171994 2.204900 -9.280400 -26.676500 7.225500 2.974420 -6.337628 -1.551118 -12.069019 30.420719 4.994166 -18.259071 -7.556752 -0.649300 5.154400 -14.349400 -0.143350 -0.467786 0.566499 -0.530076 -0.362854 7.887338 4.312992 -1.059922 13.136651 1.604500 -0.354000 3.833300 -70.155703 -2.061042 35.354392 34.284604 -42.691095 -16.370548 1.341003 0.514155 12.376489 -7.125000 0.000000 0.000000 66.423209 2.047553 42.456702 -33.677045 42.614087 -14.587787 1.399613 -0.789298 14.906875 7.125000 0.000000 0.000000 
17.028888 17.889968 1.426896 121.551948 -88.419223 -122.834115 -6.281279 3.541091 -7.226931 0.833882 10.393710 24.411275 -7.746761 21.555499 -0.305215 2.090000 -9.051000 -25.954900 7.065399 2.917774 -6.374679 -1.557318 -12.057679 30.402994 4.992463 -18.248199 -7.422570 -0.676000 5.257400 -14.644300 -0.238310 -0.371045 0.587415 -0.658071 -0.313980 7.913985 4.463979 -1.057163 13.128979 1.642400 -0.341700 3.860100 -69.932758 -2.025371 35.482207 34.389884 -42.752145 -16.434608 1.345540 0.507782 12.284857 -7.125000 0.000000 0.000000 66.618449 2.072997 42.282342 -33.732514 42.647752 -14.617163 1.382235 -0.807253 14.915615 7.125000 0.000000 0.000000 
17.027479 17.890510 1.425812 122.287469 -88.447651 -123.565292 -6.240088 3.532276 -7.216630 0.833783 10.394799 24.430391 -7.707580 21.454978 -0.358098 2.063000 -8.996000 -25.782900 7.114869 3.017911 -6.329932 -1.550618 -12.057821 30.394272 5.000834 -18.274138 -7.490464 -0.646100 5.142200 -14.314500 -0.240261 -0.339391 0.565124 -0.686754 -0.294789 7.877602 4.387440 -1.058739 13.124426 1.589000 -0.342200 3.831800 -69.915259 -1.951621 35.548475 34.419406 -42.778046 -16.454885 1.346309 0.505001 12.283697 -7.125000 0.000000 0.000000 66.657092 1.997936 42.189731 -33.729922 42.652500 -14.624619 1.386560 -0.803049 14.954749 7.125000 0.000000 0.000000 
17.027045 17.888993 1.424945 124.650651 -88.528972 -125.949347 -6.134485 3.562824 -7.210503 0.842530 10.394598 24.437867 -7.714456 21.477949 -0.292275 2.118300 -9.108200 -26.134400 7.219659 2.956467 -6.329836 -1.547719 -12.061387 30.393738 4.982062 -18.224857 -7.479108 -0.654400 5.174200 -14.406100 -0.237143 -0.313573 0.588759 -0.747237 -0.276630 7.902999 4.419727 -1.101274 13.184454 1.598300 -0.359800 3.880100 -69.844202 -1.985391 35.639816 34.456502 -42.798358 -16.475217 1.347860 0.503845 12.224185 -7.125000 0.000000 0.000000 66.701454 2.044100 42.115597 -33.720348 42.647637 -14.626023 1.396472 -0.794564 14.915419 7.125000 0.000000 0.000000 
17.026069 17.888776 1.424078 126.005170 -88.559180 -127.311515 -6.088167 3.579020 -7.210129 0.848228 10.399154 24.458133 -7.711073 21.469748 -0.285191 2.125700 -9.123200 -26.181400 7.266645 2.936513 -6.325383 -1.545053 -12.061060 30.386720 4.976473 -18.211147 -7.474039 -0.657900 5.187800 -14.444900 -0.243988 -0.288492 0.597528 -0.792377 -0.261143 7.909635 4.412936 -1.103470 13.219259 1.584400 -0.357700 3.903500 -69.779953 -1.981150 35.706695 34.493151 -42.821530 -16.498810 1.348389 0.502543 12.176407 -7.125000 0.000000 0.000000 66.750173 2.058479 42.059442 -33.715666 42.646234 -14.627058 1.401750 -0.789939 14.874569 7.125000 0.000000 0.000000 
17.025094 17.888668 1.423211 127.533517 -88.599560 -128.846786 -6.030435 3.600428 -7.213153 0.854491 10.402327 24.473876 -7.710625 21.470701 -0.260933 2.138100 -9.148000 -26.259500 7.325792 2.913769 -6.324447 -1.542834 -12.062983 30.385339 4.970805 -18.197383 -7.478200 -0.660500 5.198000 -14.474100 -0.240786 -0.277564 0.606453 -0.822173 -0.253277 7.919728 4.380199 -1.098286 13.271633 1.561800 -0.352700 3.935100 -69.737076 -1.983741 35.751370 34.520249 -42.838858 -16.517164 1.347895 0.502403 12.139161 -7.125000 0.000000 0.000000 66.778746 2.079929 42.035639 -33.703152 42.639020 -14.621416 1.407551 -0.784503 14.821195 7.125000 0.000000 0.000000 
17.023902 17.888884 1.422344 129.095694 -88.635477 -130.412258 -5.976911 3.620622 -7.222308 0.861155 10.406609 24.493189 -7.710377 21.471570 -0.239788 2.140200 -9.152100 -26.272400 7.379579 2.888103 -6.326383 -1.539486 -12.061913 30.375401 4.966105 -18.186470 -7.471993 -0.663100 5.208000 -14.502700 -0.234737 -0.272455 0.614112 -0.843691 -0.248821 7.932247 4.346096 -1.090486 13.334082 1.541100 -0.346800 3.971300 -69.707468 -1.985063 35.778684 34.543240 -42.853570 -16.533281 1.346838 0.502816 12.116451 -7.125000 0.000000 0.000000 66.798345 2.103670 42.032172 -33.686902 42.627619 -14.609765 1.410747 -0.781293 14.770934 7.125000 0.000000 0.000000 
